{
  "accessors": [
    {
      "bufferView": 2,
      "componentType": 5126,
      "count": 616,
      "max": [
        2.1944127082824707,
        0.4945054054260254,
        0.4658629596233368
      ],
      "min": [
        -0.6825461387634277,
        0.007135143503546715,
        -0.9733749032020569
      ],
      "type": "VEC3"
    },
    {
      "bufferView": 2,
      "byteOffset": 7392,
      "componentType": 5126,
      "count": 616,
      "max": [
        0.9965686798095703,
        1.0,
        0.9957414269447327
      ],
      "min": [
        -0.996568500995636,
        -1.0,
        -0.9957414269447327
      ],
      "type": "VEC3"
    },
    {
      "bufferView": 3,
      "componentType": 5126,
      "count": 616,
      "max": [
        0.9999995231628418,
        0.9999387860298157,
        0.9999784231185913,
        1.0
      ],
      "min": [
        -0.9999999403953552,
        -0.9998275637626648,
        -0.9992522597312927,
        -1.0
      ],
      "type": "VEC4"
    },
    {
      "bufferView": 1,
      "componentType": 5126,
      "count": 616,
      "max": [
        1.0,
        0.950145423412323
      ],
      "min": [
        0.0,
        0.0
      ],
      "type": "VEC2"
    },
    {
      "bufferView": 0,
      "componentType": 5125,
      "count": 2928,
      "type": "SCALAR"
    },
    {
      "bufferView": 2,
      "byteOffset": 14784,
      "componentType": 5126,
      "count": 340,
      "max": [
        2.1880669593811035,
        0.49689093232154846,
        0.46588045358657837
      ],
      "min": [
        -0.6676768064498901,
        0.0,
        -0.9615305066108704
      ],
      "type": "VEC3"
    },
    {
      "bufferView": 2,
      "byteOffset": 18864,
      "componentType": 5126,
      "count": 340,
      "max": [
        1.0,
        1.0,
        1.0
      ],
      "min": [
        -1.0,
        -1.0,
        -1.0
      ],
      "type": "VEC3"
    },
    {
      "bufferView": 1,
      "byteOffset": 4928,
      "componentType": 5126,
      "count": 340,
      "max": [
        0.875,
        1.0
      ],
      "min": [
        0.125,
        0.0
      ],
      "type": "VEC2"
    },
    {
      "bufferView": 0,
      "byteOffset": 11712,
      "componentType": 5125,
      "count": 564,
      "type": "SCALAR"
    }
  ],
  "asset": {
    "extras": {
      "author": "Qu3st10n (https://sketchfab.com/Qu3st10n)",
      "license": "CC-BY-NC-SA-4.0 (http://creativecommons.org/licenses/by-nc-sa/4.0/)",
      "source": "https://sketchfab.com/3d-models/coffee-table-9ae8fb70158e4b68bbd5abd6e57f66f3",
      "title": "Coffee Table"
    },
    "generator": "Sketchfab-10.50.0",
    "version": "2.0"
  },
  "bufferViews": [
    {
      "buffer": 0,
      "byteLength": 13968,
      "name": "floatBufferViews",
      "target": 34963
    },
    {
      "buffer": 0,
      "byteLength": 7648,
      "byteOffset": 13968,
      "byteStride": 8,
      "name": "floatBufferViews",
      "target": 34962
    },
    {
      "buffer": 0,
      "byteLength": 22944,
      "byteOffset": 21616,
      "byteStride": 12,
      "name": "floatBufferViews",
      "target": 34962
    },
    {
      "buffer": 0,
      "byteLength": 9856,
      "byteOffset": 44560,
      "byteStride": 16,
      "name": "floatBufferViews",
      "target": 34962
    }
  ],
  "buffers": [
    {
      "byteLength": 54416,
      "uri": "scene.bin"
    }
  ],
  "images": [
    {
      "uri": "textures/CoffeeTable_mat_baseColor.png"
    },
    {
      "uri": "textures/CoffeeTable_mat_metallicRoughness.png"
    },
    {
      "uri": "textures/CoffeeTable_mat_normal.png"
    }
  ],
  "materials": [
    {
      "doubleSided": true,
      "name": "CoffeeTable_mat",
      "normalTexture": {
        "index": 2
      },
      "pbrMetallicRoughness": {
        "baseColorTexture": {
          "index": 0
        },
        "metallicRoughnessTexture": {
          "index": 1
        }
      }
    },
    {
      "alphaMode": "BLEND",
      "doubleSided": true,
      "name": "proxy",
      "pbrMetallicRoughness": {
        "baseColorFactor": [
          0.5,
          0.5,
          0.5,
          0.0
        ],
        "metallicFactor": 0.0,
        "roughnessFactor": 0.6
      }
    }
  ],
  "meshes": [
    {
      "name": "CoffeeTable_CoffeeTable_mat_0",
      "primitives": [
        {
          "attributes": {
            "NORMAL": 1,
            "POSITION": 0,
            "TANGENT": 2,
            "TEXCOORD_0": 3
          },
          "indices": 4,
          "material": 0,
          "mode": 4
        }
      ]
    },
    {
      "name": "proxy_CoffeeTable_proxy_0",
      "primitives": [
        {
          "attributes": {
            "NORMAL": 6,
            "POSITION": 5,
            "TEXCOORD_0": 7
          },
          "indices": 8,
          "material": 1,
          "mode": 4
        }
      ]
    }
  ],
  "nodes": [
    {
      "children": [
        1
      ],
      "matrix": [
        1.0,
        0.0,
        0.0,
        0.0,
        0.0,
        2.220446049250313e-16,
        -1.0,
        0.0,
        0.0,
        1.0,
        2.220446049250313e-16,
        0.0,
        0.0,
        0.0,
        0.0,
        1.0
      ],
      "name": "Sketchfab_model"
    },
    {
      "children": [
        2
      ],
      "matrix": [
        1.0,
        0.0,
        0.0,
        0.0,
        0.0,
        0.0,
        1.0,
        0.0,
        0.0,
        -1.0,
        0.0,
        0.0,
        0.0,
        0.0,
        0.0,
        1.0
      ],
      "name": "26f4fd1cb58d4055bf39537388057919.fbx"
    },
    {
      "children": [
        3
      ],
      "name": "RootNode"
    },
    {
      "children": [
        4,
        5
      ],
      "matrix": [
        1.0,
        0.0,
        0.0,
        0.0,
        0.0,
        1.0,
        0.0,
        0.0,
        0.0,
        0.0,
        1.0,
        0.0,
        0.0,
        -0.00653386116027832,
        0.0,
        1.0
      ],
      "name": "CoffeeTable"
    },
    {
      "mesh": 0,
      "name": "CoffeeTable_CoffeeTable_mat_0"
    },
    {
      "children": [
        6
      ],
      "name": "proxy_CoffeeTable"
    },
    {
      "mesh": 1,
      "name": "proxy_CoffeeTable_proxy_0"
    }
  ],
  "samplers": [
    {
      "magFilter": 9729,
      "minFilter": 9987,
      "wrapS": 10497,
      "wrapT": 10497
    }
  ],
  "scene": 0,
  "scenes": [
    {
      "name": "Sketchfab_Scene",
      "nodes": [
        0
      ]
    }
  ],
  "textures": [
    {
      "sampler": 0,
      "source": 0
    },
    {
      "sampler": 0,
      "source": 1
    },
    {
      "sampler": 0,
      "source": 2
    }
  ]
}
